<?xml version="1.0" standalone="no"?><!DOCTYPE svg PUBLIC "-//W3C//DTD SVG 1.1//EN" "http://www.w3.org/Graphics/SVG/1.1/DTD/svg11.dtd"><svg t="1726658366083" class="icon" viewBox="0 0 1024 1024" version="1.1" xmlns="http://www.w3.org/2000/svg" p-id="4794" xmlns:xlink="http://www.w3.org/1999/xlink" width="200" height="200"><path d="M170.666667 384v469.333333h682.666666V384H170.666667z m426.666666 85.333333a42.666667 42.666667 0 0 1 0 85.333334h-170.666666a42.666667 42.666667 0 0 1 0-85.333334h170.666666z m341.333334-298.666666H85.333333v128h853.333334V170.666667z m0 725.333333a42.666667 42.666667 0 0 1-42.666667 42.666667H128a42.666667 42.666667 0 0 1-42.666667-42.666667V384H42.666667a42.666667 42.666667 0 0 1-42.666667-42.666667V128a42.666667 42.666667 0 0 1 42.666667-42.666667h938.666666a42.666667 42.666667 0 0 1 42.666667 42.666667v213.333333a42.666667 42.666667 0 0 1-42.666667 42.666667h-42.666666v512z"  p-id="4795"></path></svg>