<?xml version="1.0" standalone="no"?><!DOCTYPE svg PUBLIC "-//W3C//DTD SVG 1.1//EN" "http://www.w3.org/Graphics/SVG/1.1/DTD/svg11.dtd"><svg t="1722439963715" class="icon" viewBox="0 0 1024 1024" version="1.1" xmlns="http://www.w3.org/2000/svg" p-id="4501" xmlns:xlink="http://www.w3.org/1999/xlink" width="200" height="200"><path d="M129.465 495.738c-11.408 11.408-11.408 29.855 0 41.142l351.952 351.952c11.408 11.408 29.855 11.408 41.142 0 5.703-5.703 8.496-13.107 8.496-20.631s-2.791-14.928-8.496-20.631l-302.194-302.194h650.627c16.142 0 29.127-12.986 29.127-29.127s-12.986-29.127-29.127-29.127h-650.627l302.194-302.194c5.703-5.703 8.496-13.107 8.496-20.631s-2.791-14.928-8.496-20.631c-11.408-11.408-29.855-11.408-41.142 0l-351.952 352.074z" fill="" p-id="4502"></path></svg>